<svg xmlns="http://www.w3.org/2000/svg" viewBox="0 0 64 64" width="64" height="64">
  <defs>
    <linearGradient id="cu-grad" x1="0%" y1="0%" x2="100%" y2="100%">
      <stop offset="0%" stop-color="#6b3f2a"/>
      <stop offset="55%" stop-color="#c1272d"/>
      <stop offset="100%" stop-color="#f2994a"/>
    </linearGradient>
  </defs>
  <circle cx="32" cy="32" r="32" fill="url(#cu-grad)"/>
  <path d="M32 12c4 8-6 10-6 18a10 10 0 0 0 20 0c0-3-1.2-5.4-2.6-7.6.4 3-1 5.6-3 6.8 1-5-2-9-4-11.4-1 3.6-3.6 5-3.6 8.4 0 2.2 1.6 3.4 1.6 5.4a4 4 0 0 1-8 0c0-6 6.6-9.4 5.6-19.6Z" fill="#fff6ee"/>
</svg>
